<svg width="110" height="40" viewBox="0 0 110 40" fill="none" xmlns="http://www.w3.org/2000/svg"><g clip-path="url(#clip0)"><path d="M11.14 5.397A2.692 2.692 0 0013.823 2.7 2.692 2.692 0 0011.139 0a2.692 2.692 0 00-2.685 2.699 2.692 2.692 0 002.685 2.698zM11.14 22.395a2.692 2.692 0 002.684-2.698 2.692 2.692 0 00-2.685-2.699 2.692 2.692 0 00-2.685 2.699 2.692 2.692 0 002.685 2.698zM5.154 7.879A2.692 2.692 0 007.84 5.18a2.692 2.692 0 00-2.685-2.698A2.692 2.692 0 002.47 5.18 2.692 2.692 0 005.154 7.88zM17.096 19.883a2.692 2.692 0 002.685-2.699 2.692 2.692 0 00-2.685-2.698 2.692 2.692 0 00-2.684 2.698 2.692 2.692 0 002.684 2.699zM2.685 13.896a2.692 2.692 0 002.684-2.698 2.692 2.692 0 00-2.684-2.699A2.692 2.692 0 000 11.198a2.692 2.692 0 002.685 2.698zM19.596 13.896a2.692 2.692 0 002.685-2.698 2.692 2.692 0 00-2.685-2.699 2.692 2.692 0 00-2.685 2.699 2.692 2.692 0 002.685 2.698zM5.154 19.883a2.692 2.692 0 002.685-2.699 2.692 2.692 0 00-2.685-2.698 2.692 2.692 0 00-2.685 2.698 2.692 2.692 0 002.685 2.699zM17.096 7.879a2.692 2.692 0 002.685-2.699 2.692 2.692 0 00-2.685-2.698 2.692 2.692 0 00-2.684 2.698 2.692 2.692 0 002.684 2.699zM11.14 13.896a2.692 2.692 0 002.684-2.699A2.692 2.692 0 0011.139 8.5a2.692 2.692 0 00-2.685 2.698 2.692 2.692 0 002.685 2.699z" fill="#FF451F"/><path d="M38.234.713c-5.863 0-10.646 4.684-10.646 10.454 0 5.769 4.783 10.422 10.646 10.422 5.986 0 10.677-4.591 10.677-10.422C48.91 5.303 44.22.712 38.234.712zm0 15.913c-3.21 0-5.431-2.265-5.431-5.49 0-3.226 2.252-5.49 5.43-5.49 3.21 0 5.463 2.264 5.463 5.49 0 3.225-2.253 5.49-5.462 5.49zM56.348 9.336c0-1.426.432-3.815 3.363-3.815 3.024 0 3.364 2.668 3.364 3.815V21.31h5.215V9.336c0-5.304-3.302-8.623-8.579-8.623-5.276 0-8.578 3.32-8.578 8.623V21.31h5.215V9.336zM82.792 1.086l-4.196 7.227-3.827-7.01-.123-.217h-5.987l7.314 12.438v7.786h5.184v-7.786L88.5 1.086h-5.709zM102.017 10.36l6.48-9.274h-6.079l-3.364 5.242-3.394-5.242h-6.048l6.48 9.274-7.591 10.95h6.048l4.505-6.762 4.475 6.762h6.048l-7.56-10.95zM53.237 26.955h-3.672v.316h1.154v6.117c0 1.845-.524 2.373-1.626 2.373-.734 0-.839-.528-.839-.844 0-.686-.052-1.055-.63-1.055-.629 0-.681.633-.681.791 0 .844.367 1.477 2.045 1.477 1.994 0 3.043-.686 3.043-2.9V27.27h1.206v-.316zM53.71 34.757a.672.672 0 00-.524.21.68.68 0 00-.21.528c0 .211.053.37.21.528.158.158.315.21.525.21.21 0 .367-.052.524-.21a.679.679 0 00.21-.528.679.679 0 00-.21-.527c-.105-.158-.315-.211-.524-.211zM61.894 34.757a.672.672 0 00-.524.21.68.68 0 00-.21.528c0 .211.052.37.21.528.157.158.315.21.524.21.21 0 .368-.052.525-.21a.68.68 0 00.21-.528.68.68 0 00-.21-.527.672.672 0 00-.525-.211zM59.321 26.955h-3.62v.316h1.05v7.013c0 .528-.052.686-.105.844-.052.158-.21.316-.42.422-.157.052-.42.105-.734.105v.264h3.882v-.264c-.315 0-.577-.053-.735-.105-.21-.106-.367-.211-.472-.422a1.635 1.635 0 01-.105-.58v-2.373h.945c2.78 0 3.567-1.107 3.567-2.636.052-1.53-.42-2.584-3.253-2.584zm-.472 4.85h-.734v-4.481h.682c2.15 0 2.623.896 2.623 2.32-.053 1.424-.892 2.162-2.57 2.162zM74.114 35.077c-.053-.158-.053-.37-.053-.633v-7.171h.944v-.264h-2.308c-.052.106-2.727 6.855-2.727 6.855l-.053.053c-.052 0-.052 0-.052-.053 0 0-2.886-6.75-2.886-6.855h-2.517v.264h1.101v7.593a.6.6 0 01-.157.422c-.105.105-.21.21-.42.316-.105.053-.315.053-.525.053v.264h2.518v-.264c-.21 0-.314-.053-.42-.053-.21-.052-.314-.158-.419-.264a.6.6 0 01-.157-.421l-.053-.633v-6.064h.158s3.252 7.646 3.305 7.699h.262l2.99-7.646h.052v6.17c0 .263-.052.474-.052.632-.052.21-.21.316-.367.422a1.946 1.946 0 01-.63.105v.317h3.515v-.264c-.262 0-.472-.053-.63-.106-.21-.105-.367-.263-.42-.474zM78.837 29.38c-1.888 0-3.042 1.266-3.042 3.427 0 3.217 2.465 3.428 2.99 3.428 1.05 0 3.042-.685 3.042-3.48.053-2.215-1.258-3.375-2.99-3.375zm0 6.433c-1.416 0-1.626-.685-1.626-2.953 0-1.74.105-3.058 1.626-3.058 1.627 0 1.627 1.37 1.627 2.953 0 2.267-.368 3.058-1.627 3.058zM86.757 29.435c-1.102 0-1.469.685-1.783 1.318h-.105s-.158-1.002-.21-1.266h-2.15v.317h1.153v4.429c0 .422-.052.738-.157.95-.105.21-.367.316-.84.316h-.21v.421h3.62v-.369h-.21c-.472 0-.681-.105-.786-.316-.105-.158-.158-.475-.158-.95v-2.32c0-.79.577-1.634 1.26-1.634.734 0 .734 1.107 1.52.686.525-.264.473-1.582-.944-1.582zM101.239 35.284c-.368 0-.525-.21-.525-.58v-3.533c0-.58-.105-.949-.42-1.318-.314-.316-.996-.527-1.94-.527-.892 0-1.574.158-1.994.474-.42.317-.577.633-.577 1.055 0 .21.052.316.157.422a.593.593 0 00.42.158c.367 0 .577-.211.63-.686.052-.369.157-.58.314-.738.21-.21.472-.316.892-.316.472 0 .787.105.944.369.158.21.263.527.263.95v1.054c-1.154.105-3.935.316-3.778 2.425.053.844.787 1.53 1.68 1.53 1.048 0 1.678-.58 2.15-1.055.052.474.472 1.002 1.259 1.002.839 0 1.364-.422 1.416-1.477h-.209c-.158.527-.473.791-.682.791zM99.35 34.6s0 .053 0 0l-.052.053c-.63.58-1.102.79-1.47.79-.891 0-1.048-.738-1.048-1.107 0-1.213 1.626-1.793 2.518-1.793V34.6h.052zM108.687 35.229c-.105-.159-.21-.475-.21-.95v-2.9c0-.422-.053-.79-.21-1.054s-.367-.528-.682-.633c-.262-.158-.63-.211-.944-.211-1.259 0-1.784.79-2.046 1.266h-.105l-.21-1.16h-1.993v.316h.996v4.43c0 .368-.052.58-.052.737-.053.211-.157.317-.367.422a1.311 1.311 0 01-.525.106v.316h3.148v-.422c-.315 0-.525-.105-.63-.263-.105-.159-.157-.475-.157-.897v-1.687c0-.686 0-1.371.262-1.793a1.41 1.41 0 011.259-.738c.472 0 .734.158.892.474.105.264.21 1.002.21 1.477v2.109c0 .37.052.633 0 .79-.053.212-.105.37-.263.423a2.116 2.116 0 01-.524.158v.369h3.042v-.422c-.524 0-.786-.105-.891-.263zM94.472 29.115c-.21.053-.314.211-.367.528-.052.263-.157.422-.262.474-.158.053-.263.053-.472-.052-.315-.317-.944-.686-2.046-.686-1.784 0-2.57 1.265-2.57 2.426 0 1.37.524 2.003 1.678 2.267.052 0 .052.105 0 .105-.997.211-1.836.475-1.836 1.424 0 .58.315.844.734 1.055.472.158 1.102.264 1.889.316.682 0 1.207.053 1.521.053.367.053.63.158.84.264.21.158.314.422.314.738 0 .422-.21.79-.682 1.054-.42.264-.996.37-1.73.37-.63 0-1.103-.053-1.575-.37-.314-.21-.42-.632-.314-.896.052-.316-.053-.633-.368-.686-.21-.052-.42.053-.524.264-.105.158-.158.37-.158.58 0 .738.578 1.107 1.05 1.266a5.42 5.42 0 001.783.263c.84 0 1.522-.105 1.994-.369.472-.263.839-.527.996-.896.21-.37.263-.686.263-1.055 0-.474-.105-.843-.315-1.107-.63-.897-1.521-.738-3.567-.844-.997 0-1.154-.158-1.154-.474 0-.422.367-.633 1.783-.844 1.364-.211 2.676-.738 2.676-2.426 0-.474-.105-.896-.263-1.212.263.052.577.052.787 0 .262-.106.472-.211.577-.422.105-.211.105-.37.053-.58-.158-.528-.368-.633-.735-.528zm-3.147 4.64c-.84 0-1.312-.316-1.312-2.003 0-1.213.42-2.057 1.312-2.057 1.049 0 1.311.791 1.311 2.057.053 1.793-.524 2.004-1.311 2.004zM32.781 27.373v3.898c.425-.78 1.17-1.225 1.967-1.225 1.7 0 2.55 1.504 2.55 3.118 0 1.727-.956 3.007-2.657 3.007-.797 0-1.488-.39-1.913-1.114v.947h-.957v-8.63h1.01zm1.754 7.852c1.17 0 1.754-.947 1.754-2.06 0-1.114-.638-2.116-1.754-2.116s-1.754 1.057-1.754 2.115c-.053 1.058.638 2.06 1.754 2.06zM43.145 30.157l-3.615 8.297h-1.063l1.382-3.23-2.126-5.123h1.116l1.595 3.842 1.647-3.842h1.063v.056z" fill="#fff"/></g><defs><clipPath id="clip0"><path fill="#fff" d="M0 0h109.63v40H0z"/></clipPath></defs></svg>